<svg xmlns="http://www.w3.org/2000/svg" width="24" height="24" viewBox="0 0 24 24">
    <path fill="#F50" fill-rule="evenodd" d="M12 0C5.372 0 0 5.372 0 12s5.372 12 12 12 12-5.372 12-12S18.628 0 12 0zm5.66 17.545a.753.753 0 0 1-1.062.012L12 13.05l-4.598 4.505a.75.75 0 0 1-1.062-.012.75.75 0 0 1 .012-1.062L10.929 12 6.352 7.516a.753.753 0 0 1-.012-1.061.753.753 0 0 1 1.062-.012L12 10.95l4.598-4.505a.75.75 0 0 1 1.062.012.75.75 0 0 1-.012 1.062L13.071 12l4.577 4.484c.296.29.3.764.012 1.061z"/>
</svg>
