<?xml version="1.0" standalone="no"?><!DOCTYPE svg PUBLIC "-//W3C//DTD SVG 1.1//EN" "http://www.w3.org/Graphics/SVG/1.1/DTD/svg11.dtd"><svg t="1521801652446" class="icon" style="" viewBox="0 0 1024 1024" version="1.1" xmlns="http://www.w3.org/2000/svg" p-id="2483" xmlns:xlink="http://www.w3.org/1999/xlink" width="200" height="200"><defs><style type="text/css"></style></defs><path d="M512 120a392 392 0 1 1-392 392 392.48 392.48 0 0 1 392-392m0-64a456 456 0 1 0 456 456A456 456 0 0 0 512 56z" p-id="2484"></path><path d="M688 368H336a32 32 0 0 1 0-64h352a32 32 0 0 1 0 64zM688 528H336a32 32 0 0 1 0-64h352a32 32 0 0 1 0 64zM576 688H336a32 32 0 0 1 0-64h240a32 32 0 0 1 0 64z" p-id="2485"></path><path d="M688 656m-32 0a32 32 0 1 0 64 0 32 32 0 1 0-64 0Z" p-id="2486"></path></svg>