<?xml version="1.0" standalone="no"?><!DOCTYPE svg PUBLIC "-//W3C//DTD SVG 1.1//EN" "http://www.w3.org/Graphics/SVG/1.1/DTD/svg11.dtd">
<svg t="1521795034257" class="icon" style="" viewBox="0 0 1024 1024" version="1.1" xmlns="http://www.w3.org/2000/svg" p-id="2118" xmlns:xlink="http://www.w3.org/1999/xlink" width="200" height="200">
<defs>
<style type="text/css"></style>
</defs>
<path d="M864 192h-384a128 128 0 0 0-128-128h-192a128 128 0 0 0-128 128v640a128 128 0 0 0 128 128h704a128 128 0 0 0 128-128V320a128 128 0 0 0-128-128z m64 640a64 64 0 0 1-64 64h-704a64 64 0 0 1-64-64V384h832v448z m-832-512V192a64 64 0 0 1 64-64h192a64 64 0 0 1 64 64v64h448a64 64 0 0 1 64 64h-832z" fill="#ccc" p-id="2119"></path></svg>