<?xml version="1.0" standalone="no"?><!DOCTYPE svg PUBLIC "-//W3C//DTD SVG 1.1//EN" "http://www.w3.org/Graphics/SVG/1.1/DTD/svg11.dtd"><svg t="1521789449221" class="icon" style="" viewBox="0 0 1024 1024" version="1.1" xmlns="http://www.w3.org/2000/svg" p-id="3124" xmlns:xlink="http://www.w3.org/1999/xlink" width="200" height="200"><defs><style type="text/css"></style></defs><path d="M811 838a135 135 0 1 1 135-135 135.152 135.152 0 0 1-135 135z m0-198a63 63 0 1 0 63 63 63.072 63.072 0 0 0-63-63zM692.856 373.516L741.144 320A339.36 339.36 0 0 1 846 504.4l-70.678 14.06a266.8 266.8 0 0 0-82.466-144.944zM580 398H448a76.086 76.086 0 0 1-76-76V190a76.086 76.086 0 0 1 76-76h132a76.086 76.086 0 0 1 76 76v132a76.086 76.086 0 0 1-76 76z m4-208a4 4 0 0 0-4-4H448a4 4 0 0 0-4 4v132a4 4 0 0 0 4 4h132a4 4 0 0 0 4-4V190zM111.028 828L80 773.922 193.682 578l62.612 0.974L362 774.896 330.426 828H111.028z m112.548-158.372l-50.134 86.4H270.2zM182 517.838a338.554 338.554 0 0 1 103.72-194.6l49.038 52.828A266.114 266.114 0 0 0 253.2 529.018zM515.2 835.9a264.65 264.65 0 0 0 136.706-37.912l37.2 61.744A337.68 337.68 0 0 1 375.574 877.8l29.858-65.6A263.01 263.01 0 0 0 515.2 835.9z" p-id="3125" fill="#000000"></path></svg>