<?xml version="1.0" standalone="no"?><!DOCTYPE svg PUBLIC "-//W3C//DTD SVG 1.1//EN" "http://www.w3.org/Graphics/SVG/1.1/DTD/svg11.dtd"><svg t="1521789508581" class="icon" style="" viewBox="0 0 1024 1024" version="1.1" xmlns="http://www.w3.org/2000/svg" p-id="4626" xmlns:xlink="http://www.w3.org/1999/xlink" width="200" height="200"><defs><style type="text/css"></style></defs><path d="M602.487386 567.199183c-124.092249 0-225.063919-100.955296-225.063919-225.047546S478.395136 117.105115 602.487386 117.105115c124.075877 0 225.047546 100.955296 225.047546 225.047546S726.563262 567.199183 602.487386 567.199183L602.487386 567.199183zM602.487386 160.083975c-100.443643 0-182.085058 81.625042-182.085058 182.068685 0 100.395548 81.640392 182.068685 182.085058 182.068685 100.363825 0 182.068685-81.673138 182.068685-182.068685C784.555048 241.707994 702.851211 160.083975 602.487386 160.083975L602.487386 160.083975zM941.776835 906.921491c-11.879562 0-21.473057-9.625218-21.473057-21.505803 0-84.662215-32.969902-164.368558-92.768847-224.391606-8.378831-8.378831-8.378831-21.98471 0-30.363542 8.458649-8.394181 22.032806-8.394181 30.411637 0.064468C925.899216 698.806593 963.282638 789.289374 963.282638 885.415688 963.282638 897.296273 953.656397 906.921491 941.776835 906.921491L941.776835 906.921491zM600.871585 567.567573c-173.642782 0.064468-316.185242 142.655024-316.185242 317.848115 0 11.879562-9.625218 21.505803-21.505803 21.505803s-21.473057-9.625218-21.473057-21.505803c0-198.905142 161.810293-360.76353 360.779903-360.76353 0.671289 0 1.614777 0.048095 2.286066 0.096191 11.416004 1.055029 20.22667 10.889001 19.682271 22.416546C623.94407 559.301306 612.959901 568.782238 600.871585 567.567573L600.871585 567.567573zM353.679693 205.972095c-77.995375 0-141.408637 67.730591-141.408637 151.017482 0 83.319637 63.413262 151.0973 141.408637 151.0973 11.864212 0 21.457708 9.577123 21.457708 21.441335 0 11.879562-9.593496 21.537526-21.457708 21.537526-101.707426 0-184.371124-87.045495-184.371124-194.07616 0-106.951871 82.663698-193.996342 184.371124-193.996342 11.864212 0 21.457708 9.593496 21.457708 21.473057S365.543905 205.972095 353.679693 205.972095L353.679693 205.972095zM353.679693 551.210024c-137.842415 0-249.974261 119.343085-249.974261 266.059612 0 11.879562-9.625218 21.505803-21.505803 21.505803s-21.473057-9.625218-21.473057-21.505803c0-170.396855 131.398656-309.038472 292.953122-309.038472 11.864212 0 21.457708 9.593496 21.457708 21.473057S365.543905 551.210024 353.679693 551.210024L353.679693 551.210024z" p-id="4627"></path></svg>